<?xml version="1.0" standalone="no"?>
<!DOCTYPE svg PUBLIC "-//W3C//DTD SVG 20010904//EN"
 "http://www.w3.org/TR/2001/REC-SVG-20010904/DTD/svg10.dtd">
<svg version="1.0" xmlns="http://www.w3.org/2000/svg"
 width="460.000000pt" height="460.000000pt" viewBox="0 0 460.000000 460.000000"
 preserveAspectRatio="xMidYMid meet">

<g transform="translate(0.000000,460.000000) scale(0.100000,-0.100000)"
fill="#000000" stroke="none">
<path d="M0 3336 c0 -1227 1 -1264 19 -1259 14 3 22 -5 35 -38 9 -23 19 -60
22 -83 24 -193 25 -283 2 -354 -5 -18 -14 -77 -18 -130 -4 -53 -15 -117 -25
-142 -14 -37 -16 -63 -10 -140 5 -74 3 -106 -9 -140 -13 -38 -16 -120 -16
-547 l0 -503 214 0 214 0 7 65 c4 36 12 68 17 71 5 4 5 10 -1 18 -6 7 -4 35 5
81 9 39 19 113 24 165 4 52 15 131 24 175 16 84 24 127 56 290 10 55 31 154
45 220 15 66 33 149 40 185 12 61 48 202 97 380 91 329 87 308 53 307 -34 0
-47 14 -51 55 -2 19 -12 39 -24 47 -11 7 -20 18 -20 24 0 6 -7 18 -15 27 -18
20 -25 75 -16 128 5 23 1 61 -10 102 -9 36 -18 57 -18 48 -2 -33 -31 -18 -55
29 -12 24 -14 38 -6 59 10 26 11 26 33 8 12 -11 26 -25 30 -32 7 -10 12 -7 23
13 17 32 18 55 3 55 -12 0 -7 142 8 207 7 29 7 49 -2 70 -7 15 -15 46 -19 68
-4 22 -12 42 -17 45 -8 5 -29 104 -50 233 -5 33 -12 64 -16 70 -4 7 -11 37
-15 67 -3 30 -10 76 -13 101 -5 30 -3 54 5 70 9 16 9 24 2 27 -7 2 -6 15 4 39
8 19 12 38 9 42 -4 3 10 11 31 17 53 15 62 33 40 86 -33 79 -49 107 -77 135
-16 16 -29 32 -29 37 0 5 -22 54 -50 110 -51 105 -69 174 -91 351 -6 49 -18
107 -27 129 -8 21 -20 69 -26 105 l-11 66 -162 3 -163 2 0 -1264z m319 -2939
c1 -4 -6 -19 -15 -32 -12 -19 -25 -25 -50 -25 -30 0 -39 7 -36 31 4 29 11 85
11 91 1 10 90 -54 90 -65z"/>
<path d="M2695 4570 c-22 -16 -45 -29 -51 -30 -6 0 -21 -11 -34 -25 -13 -14
-28 -25 -33 -25 -5 0 -35 -21 -66 -47 -32 -27 -70 -57 -86 -68 -15 -11 -37
-29 -49 -40 -12 -11 -46 -41 -76 -66 -74 -62 -227 -214 -241 -241 -11 -20 -10
-21 42 -13 138 21 369 -6 484 -58 28 -12 52 -24 55 -27 3 -3 21 -13 40 -23 46
-24 102 -110 94 -143 -6 -23 -44 -35 -44 -14 0 6 -7 10 -16 10 -9 0 -22 7 -28
15 -6 9 -31 18 -56 20 -55 4 -71 8 -90 20 -24 16 -200 9 -241 -9 -20 -8 -39
-12 -43 -9 -10 11 -54 -48 -49 -67 6 -22 30 -18 98 18 40 21 64 26 120 26 94
0 161 -15 212 -47 24 -15 47 -27 53 -27 5 0 10 -5 10 -11 0 -7 -7 -8 -17 -4
-10 4 -26 10 -35 12 -10 3 -15 9 -12 14 3 5 -10 9 -28 10 -18 0 -42 3 -53 5
-72 17 -94 16 -123 -4 -16 -12 -48 -24 -71 -28 -38 -6 -41 -9 -41 -40 0 -18
-4 -36 -10 -39 -5 -3 -10 3 -10 15 0 13 -5 20 -12 17 -7 -2 -12 -12 -10 -22 2
-9 -1 -14 -6 -11 -12 7 -39 -71 -34 -96 5 -24 22 -23 22 1 0 11 5 23 10 26 16
10 24 -26 11 -48 -10 -16 -10 -21 0 -28 11 -6 10 -9 -4 -15 -9 -3 -23 -1 -31
5 -11 9 -11 3 -3 -39 5 -28 12 -48 15 -46 8 8 32 -21 32 -39 0 -9 -4 -14 -8
-11 -5 3 -9 -1 -9 -8 0 -8 7 -12 15 -8 12 4 14 -1 9 -29 -3 -19 -3 -28 0 -21
2 6 9 9 14 6 11 -7 -8 -34 -23 -34 -21 0 -68 66 -68 95 0 7 -6 18 -14 24 -8 6
-17 36 -21 66 -3 30 -10 55 -15 55 -4 0 -10 9 -13 20 -9 35 -27 22 -27 -21 0
-24 -4 -38 -10 -34 -5 3 -10 17 -10 31 0 13 -4 24 -10 24 -5 0 -10 -7 -10 -15
0 -9 -6 -18 -14 -21 -21 -8 -8 -34 16 -34 18 0 19 -4 13 -37 -9 -50 -14 -56
-31 -42 -11 9 -14 8 -14 -2 0 -11 -2 -11 -10 1 -8 11 -9 9 -8 -12 1 -16 6 -28
10 -28 4 0 8 -11 8 -25 0 -14 8 -29 20 -35 11 -6 20 -8 20 -5 0 3 9 1 20 -5
11 -6 20 -17 20 -24 0 -8 7 -19 15 -26 8 -7 15 -16 15 -21 0 -4 -12 3 -26 16
-14 13 -23 29 -19 34 3 6 3 11 -2 11 -4 0 -13 -12 -20 -26 -10 -21 -9 -23 1
-15 18 15 27 2 15 -23 -9 -20 -9 -20 4 -3 15 18 34 7 22 -12 -3 -6 2 -14 11
-19 10 -5 14 -14 9 -21 -5 -9 -11 -9 -23 2 -14 13 -22 13 -47 3 -28 -12 -31
-11 -52 21 -13 19 -23 38 -23 43 0 5 -5 12 -12 16 -6 4 -8 3 -4 -4 3 -6 2 -13
-3 -16 -5 -3 -17 20 -27 51 -10 32 -22 61 -27 64 -5 4 -2 18 8 33 16 25 16 26
0 26 -13 0 -16 5 -11 23 4 12 10 38 13 57 5 31 4 33 -11 21 -14 -12 -16 -11
-16 9 0 19 -2 20 -15 10 -9 -8 -15 -9 -15 -2 0 6 4 13 9 16 18 12 18 63 -1 75
-14 9 -20 8 -24 -2 -9 -24 3 -173 16 -198 8 -13 12 -24 10 -24 -2 0 0 -11 4
-25 21 -76 30 -100 40 -100 7 0 17 -14 23 -31 7 -18 17 -28 23 -24 7 4 9 -2 6
-20 -4 -21 -2 -25 10 -21 8 3 12 2 9 -3 -3 -5 0 -11 7 -14 7 -2 3 -2 -9 -1
-12 2 -24 -2 -26 -9 -3 -6 -6 0 -6 16 -1 17 -6 27 -16 27 -8 0 -15 5 -15 10 0
6 -11 3 -26 -6 -17 -12 -22 -20 -15 -27 6 -6 11 -19 11 -29 0 -9 8 -22 18 -27
17 -9 19 -6 20 20 1 35 12 54 12 21 0 -24 10 -28 27 -11 14 14 44 -16 36 -36
-3 -8 2 -26 11 -40 10 -16 12 -25 5 -25 -6 0 -9 -7 -6 -14 4 -10 1 -13 -9 -9
-11 4 -12 8 -3 19 17 20 3 30 -15 11 -14 -13 -12 -18 12 -43 15 -15 21 -24 15
-20 -8 4 -13 1 -13 -8 0 -8 -3 -23 -7 -33 -6 -16 -5 -16 10 -4 15 12 17 11 17
-8 0 -11 -6 -21 -12 -21 -7 0 -4 -6 7 -12 27 -15 36 -30 30 -47 -3 -8 0 -19 7
-24 9 -6 6 -7 -9 -4 -16 3 -23 0 -23 -9 0 -8 -7 -14 -15 -14 -18 0 -20 20 -2
21 6 0 2 4 -11 9 -29 12 -38 37 -23 62 8 13 8 24 2 36 -9 14 -10 13 -11 -9 0
-15 -7 -30 -16 -33 -8 -3 -13 -10 -9 -15 3 -5 1 -12 -5 -16 -15 -9 -12 -25 5
-25 8 0 15 -9 15 -19 0 -11 5 -23 10 -26 6 -3 10 -1 10 4 0 6 5 11 10 11 6 0
8 -11 4 -25 -5 -19 -2 -25 10 -25 9 0 16 -4 16 -10 0 -5 -7 -10 -15 -10 -29 0
-15 -18 20 -24 21 -4 35 -13 35 -21 0 -9 10 -15 25 -15 26 0 35 -25 13 -33
-27 -9 14 -37 53 -37 22 0 39 -5 39 -11 0 -6 -8 -8 -17 -5 -15 5 -15 4 1 -9
11 -8 31 -15 45 -15 37 0 72 -11 66 -20 -3 -5 4 -6 15 -3 34 9 53 -16 46 -59
-7 -41 -1 -48 20 -20 11 15 13 13 10 -18 -1 -19 -10 -49 -20 -65 l-17 -30 3
43 c2 23 0 42 -4 42 -5 0 -8 -6 -8 -12 0 -7 -9 -24 -20 -38 -11 -14 -20 -33
-20 -42 0 -10 -11 -25 -25 -34 -14 -9 -25 -23 -25 -31 0 -26 -25 -7 -28 22 -3
21 -6 25 -13 14 -6 -10 -9 -6 -9 14 0 24 -3 27 -21 22 -20 -7 -22 -5 -16 28 6
40 0 52 -19 36 -7 -6 -25 -9 -40 -7 -23 2 -34 15 -63 70 -20 36 -48 88 -64
114 -15 26 -30 58 -33 71 -4 14 -22 32 -43 43 -20 10 -58 39 -86 64 -47 43
-49 47 -32 60 12 9 31 12 53 9 20 -3 34 -1 34 5 0 5 8 8 19 5 26 -7 33 10 15
35 -15 21 -41 32 -29 12 8 -13 1 -13 -40 4 -40 17 -46 36 -12 36 13 0 31 6 41
13 17 12 17 14 2 20 -9 4 -16 2 -16 -4 0 -6 -7 -9 -15 -5 -8 3 -15 1 -15 -4 0
-5 -11 -12 -25 -16 -22 -5 -23 -8 -9 -21 23 -24 8 -28 -16 -5 -24 22 -55 19
-46 -4 3 -8 -1 -14 -9 -14 -8 0 -12 6 -9 14 3 9 -3 17 -18 21 -24 8 -67 52
-68 71 0 6 -7 17 -15 24 -8 7 -15 21 -15 31 0 11 -4 19 -10 19 -5 0 -10 7 -10
16 0 9 -11 39 -25 66 -14 28 -26 70 -27 94 -3 49 -13 54 -51 24 -16 -13 -28
-16 -32 -10 -3 6 1 13 9 16 9 3 16 10 16 15 0 6 10 23 22 39 12 16 19 33 15
36 -10 10 -33 -13 -47 -46 -7 -17 -16 -30 -21 -30 -4 0 -11 -10 -14 -22 -4
-13 -17 -34 -29 -48 -13 -14 -28 -44 -34 -66 -16 -55 -14 -65 4 -31 8 15 19
27 24 27 5 0 14 17 20 38 13 49 25 66 39 57 15 -9 5 -63 -15 -86 -8 -9 -21
-38 -30 -65 -9 -27 -20 -53 -24 -59 -4 -5 -10 -23 -14 -40 -4 -16 -25 -71 -47
-122 -21 -51 -39 -99 -39 -107 0 -8 -4 -16 -8 -18 -11 -4 -77 -180 -92 -246
-7 -31 -20 -58 -31 -65 -14 -9 -19 -24 -19 -59 0 -26 -4 -50 -10 -53 -5 -3
-10 -14 -10 -23 0 -9 -13 -48 -29 -87 -27 -66 -54 -150 -81 -255 -7 -25 -19
-53 -28 -63 -11 -12 -15 -33 -14 -65 2 -26 -5 -72 -13 -102 -9 -30 -18 -64
-19 -75 -2 -11 -6 -31 -9 -45 -4 -14 -8 -43 -11 -65 -6 -52 -16 -85 -26 -85
-4 0 -8 -10 -8 -22 0 -29 -27 -172 -35 -185 -4 -6 -9 -34 -11 -64 -3 -30 -12
-79 -19 -109 -8 -30 -18 -98 -22 -150 -3 -52 -11 -117 -16 -144 -5 -27 -7 -58
-3 -68 3 -11 1 -25 -5 -32 -16 -19 -31 -147 -20 -168 7 -13 4 -20 -12 -28 -15
-9 -18 -15 -9 -25 6 -7 19 -11 29 -8 23 6 34 -11 26 -37 -4 -13 -15 -20 -31
-20 -13 0 -24 -1 -25 -2 0 -2 -3 -30 -5 -63 -3 -33 -9 -62 -14 -65 -4 -3 -8
-49 -7 -103 l1 -97 758 0 c486 0 758 3 758 10 0 5 -9 24 -20 42 -11 18 -20 40
-20 49 0 9 -7 30 -15 45 -8 16 -15 43 -15 59 0 41 -47 184 -70 217 -11 15 -20
30 -20 33 0 4 -11 21 -25 39 -14 18 -25 37 -25 42 -1 16 -49 64 -64 64 -8 0
-24 12 -36 27 -21 27 -21 27 -27 5 -10 -38 -88 -41 -165 -8 -18 8 -58 22 -88
31 -58 17 -263 117 -291 142 -10 8 -42 27 -72 43 -48 25 -167 133 -167 152 0
4 -11 24 -25 44 -14 20 -22 40 -20 44 3 5 1 11 -4 14 -5 3 -7 15 -4 26 3 11 1
20 -5 20 -14 0 -25 85 -13 107 5 10 16 34 25 54 8 19 24 43 36 54 11 10 20 23
20 29 0 6 16 24 36 39 33 27 34 30 20 46 -22 24 -20 38 7 56 21 14 28 14 68 0
42 -15 45 -15 61 5 9 11 19 46 23 78 5 51 12 80 45 212 5 19 11 62 13 95 6 75
27 81 35 10 12 -94 3 -366 -13 -406 -3 -9 1 -24 10 -33 9 -9 14 -20 10 -25 -3
-5 4 -12 15 -16 11 -3 20 -11 20 -16 0 -5 10 -9 21 -9 18 0 19 -2 9 -15 -14
-17 -8 -28 15 -31 8 -1 15 3 15 10 0 19 -30 56 -45 56 -8 0 -21 10 -29 22 -18
26 -20 38 -6 38 6 0 10 -5 10 -11 0 -6 6 -16 13 -24 17 -16 43 -3 32 15 -5 9
-4 11 4 6 7 -4 10 -13 8 -19 -6 -18 15 -34 37 -30 12 2 28 -1 36 -6 12 -8 12
-13 2 -23 -10 -10 -15 -10 -22 2 -7 10 -10 11 -10 2 0 -7 11 -17 25 -22 14 -5
25 -14 25 -20 0 -6 -5 -8 -12 -4 -15 10 -48 13 -48 5 0 -5 43 -26 95 -46 18
-7 18 -9 3 -12 -23 -6 -23 -20 0 -26 16 -4 16 -5 0 -6 -10 0 -18 -7 -18 -15 0
-10 13 -14 48 -13 55 0 95 -10 87 -24 -9 -13 29 -11 42 2 6 6 19 9 29 6 16 -4
15 -5 -3 -6 -23 -1 -29 -11 -16 -24 3 -4 18 0 31 9 22 14 27 15 36 2 13 -16
53 -21 61 -7 4 5 20 9 36 9 19 0 29 5 27 13 -3 13 3 17 22 17 7 0 7 -7 0 -20
-16 -29 -4 -40 42 -40 27 0 45 -6 54 -17 10 -13 13 -14 14 -4 0 11 3 11 16 0
14 -11 19 -9 35 11 19 26 20 47 1 43 -5 -1 -12 4 -15 11 -4 10 1 12 16 8 12
-3 24 -9 28 -14 3 -4 22 10 43 31 35 36 37 41 23 55 -14 15 -17 15 -26 -1 -9
-15 -10 -11 -11 18 0 25 5 39 16 43 12 5 15 14 10 36 -7 39 9 81 34 87 11 3
20 9 20 14 0 5 18 9 40 9 22 0 40 -4 40 -10 0 -5 19 -10 43 -11 36 -1 38 -2
17 -9 l-25 -8 25 -2 c14 -2 32 -3 42 -4 18 -1 68 -44 68 -58 0 -5 -4 -7 -9 -4
-5 3 -14 -1 -21 -10 -7 -8 -19 -13 -27 -10 -7 3 -13 1 -13 -5 0 -5 -14 -24
-31 -42 -16 -18 -37 -40 -46 -49 -8 -9 -21 -14 -28 -12 -13 5 -25 -24 -25 -63
0 -27 16 -29 42 -6 29 26 21 -1 -9 -31 -22 -23 -25 -29 -13 -36 12 -8 13 -13
3 -29 -7 -11 -9 -23 -4 -26 5 -3 7 -14 4 -25 -5 -18 -2 -19 25 -14 29 6 31 4
42 -37 7 -24 19 -52 27 -61 13 -14 13 -23 3 -55 -7 -21 -19 -46 -28 -56 -8 -9
-13 -19 -11 -21 8 -8 37 20 40 38 7 33 26 29 32 -6 3 -20 -1 -42 -10 -57 -11
-17 -12 -26 -4 -34 8 -8 11 -8 11 1 0 7 7 12 15 12 15 0 19 -15 16 -55 -2 -17
0 -17 8 -5 9 13 11 12 11 -5 0 -39 -15 -47 -41 -23 -13 13 -32 30 -42 37 -16
12 -17 12 -10 -5 4 -10 18 -31 33 -45 22 -23 25 -34 24 -90 0 -65 14 -99 43
-99 7 0 13 -11 13 -25 0 -14 -5 -25 -10 -25 -10 0 4 -31 28 -61 11 -14 9 -22
-10 -52 -13 -20 -30 -39 -39 -42 -11 -4 -15 -13 -12 -25 3 -12 -3 -23 -16 -32
-12 -7 -21 -19 -21 -26 0 -7 -11 -17 -25 -22 -18 -7 -24 -16 -23 -35 1 -14 6
-25 10 -25 4 0 8 -13 8 -29 0 -17 5 -33 11 -36 6 -5 3 -13 -10 -22 -12 -8 -21
-18 -21 -24 0 -5 406 -9 1070 -9 l1070 0 0 1026 0 1027 -67 -6 c-38 -4 -113
-13 -168 -22 -299 -45 -470 -63 -596 -64 -77 -1 -88 1 -107 22 -25 26 -28 42
-10 53 7 4 103 13 215 20 222 13 397 33 601 66 l133 22 -3 121 -3 120 -34 16
c-20 9 -39 28 -47 47 -13 31 -13 76 -1 89 14 13 5 39 -23 73 -21 24 -30 45
-30 70 0 19 -7 44 -15 54 -13 17 -12 22 5 46 l20 27 -45 17 c-45 18 -147 107
-180 158 -13 21 -15 37 -9 65 12 58 11 123 -2 123 -21 0 -46 38 -51 80 -6 46
13 74 61 86 15 3 29 10 32 15 9 15 78 10 102 -7 13 -9 64 -22 114 -30 51 -9
95 -17 100 -20 4 -3 8 290 8 650 l0 656 -932 0 -933 -1 -40 -29z m125 -850 c0
-5 -4 -10 -9 -10 -6 0 -13 5 -16 10 -3 6 1 10 9 10 9 0 16 -4 16 -10z m40 -16
c0 -8 -5 -12 -10 -9 -6 4 -8 11 -5 16 9 14 15 11 15 -7z m-350 -24 c17 -11 11
-19 -18 -25 -32 -6 -62 -42 -79 -96 -9 -27 -20 -49 -25 -49 -4 0 -8 -7 -8 -15
0 -8 -5 -15 -10 -15 -6 0 -8 11 -4 25 4 15 2 25 -5 25 -6 0 -11 -13 -11 -29 0
-22 6 -30 24 -35 13 -3 26 -16 29 -28 9 -31 -6 -48 -15 -18 -5 17 -6 13 -2
-13 3 -21 6 -44 8 -50 1 -7 1 -9 -1 -4 -3 4 -11 7 -18 7 -16 0 -25 22 -25 65
0 19 -4 37 -10 40 -14 9 -13 101 2 128 13 25 34 47 44 47 4 0 15 6 23 14 13
11 63 33 81 35 3 0 12 -3 20 -9z m1935 -50 c0 -39 -3 -45 -22 -48 -16 -2 -26
5 -37 27 -28 53 -18 72 34 68 23 -2 25 -6 25 -47z m-1860 30 c4 -6 -5 -10 -19
-10 -14 0 -26 5 -26 10 0 6 9 10 19 10 11 0 23 -4 26 -10z m16 -67 c34 -18 35
-19 36 -82 1 -55 -1 -64 -18 -68 -10 -3 -19 -12 -19 -19 0 -8 -10 -14 -25 -14
-14 0 -25 5 -25 10 0 6 -7 10 -15 10 -17 0 -35 30 -35 62 0 17 -3 20 -9 9 -9
-15 -7 -30 12 -68 12 -26 1 -45 -13 -23 -7 12 -10 11 -16 -4 -6 -15 -10 -10
-21 25 -27 90 -10 162 40 172 47 9 75 6 108 -10z m-281 -153 c0 -5 -4 -10 -10
-10 -5 0 -10 5 -10 10 0 6 5 10 10 10 6 0 10 -4 10 -10z m226 -78 c-3 -3 -6 0
-6 7 0 7 -4 9 -10 6 -6 -4 -10 6 -10 22 l1 28 15 -28 c9 -16 13 -31 10 -35z
m-239 16 c-3 -8 -6 -5 -6 6 -1 11 2 17 5 13 3 -3 4 -12 1 -19z m115 -12 c3
-14 2 -30 -2 -36 -4 -6 -7 5 -8 25 -2 40 4 46 10 11z m-495 -38 c-3 -8 -6 -5
-6 6 -1 11 2 17 5 13 3 -3 4 -12 1 -19z m217 -43 c3 -8 1 -15 -4 -15 -6 0 -10
7 -10 15 0 8 2 15 4 15 2 0 6 -7 10 -15z m58 -105 c3 -16 3 -30 2 -30 -9 0
-24 42 -19 50 10 16 12 12 17 -20z m903 -3 c0 -26 -20 -25 -23 2 -3 16 1 22
10 19 7 -3 13 -12 13 -21z m-913 -70 c-2 -20 -9 -34 -18 -34 -10 0 -11 4 -3
14 6 7 9 19 6 27 -3 8 -3 17 0 20 14 13 19 4 15 -27z m92 -112 c15 -75 6 -124
-13 -72 -14 35 -14 40 -1 32 13 -8 2 74 -12 92 -5 7 -6 18 -2 25 9 14 9 14 28
-77z m-162 -77 c-7 -7 -12 -21 -13 -32 0 -21 0 -21 -8 -1 -6 14 -3 24 8 32 21
16 28 16 13 1z m-357 -128 c3 -5 1 -10 -4 -10 -6 0 -11 5 -11 10 0 6 2 10 4
10 3 0 8 -4 11 -10z m255 -40 c0 -5 -2 -10 -4 -10 -3 0 -8 5 -11 10 -3 6 -1
10 4 10 6 0 11 -4 11 -10z m2330 -96 c0 -34 -27 -38 -32 -4 -3 23 -1 28 14 27
11 -1 18 -9 18 -23z m-50 -69 c0 -8 -4 -15 -10 -15 -5 0 -10 7 -10 15 0 8 5
15 10 15 6 0 10 -7 10 -15z m-2985 -115 c3 -5 -1 -10 -10 -10 -9 0 -13 5 -10
10 3 6 8 10 10 10 2 0 7 -4 10 -10z m995 -300 c0 -5 -5 -10 -11 -10 -5 0 -7 5
-4 10 3 6 8 10 11 10 2 0 4 -4 4 -10z m-713 -716 c-3 -3 -12 -4 -19 -1 -8 3
-5 6 6 6 11 1 17 -2 13 -5z m502 -154 c20 -10 53 -65 44 -73 -16 -17 -153 66
-153 94 0 8 84 -7 109 -21z m481 -1030 c0 -5 -4 -10 -10 -10 -5 0 -10 5 -10
10 0 6 5 10 10 10 6 0 10 -4 10 -10z m-1452 -112 c19 -19 14 -27 -12 -25 -14
1 -24 -2 -23 -8 1 -5 12 -10 25 -10 28 1 26 -28 -2 -33 -23 -5 -46 23 -46 54
0 31 35 45 58 22z m1399 -15 c4 -10 -37 -26 -45 -18 -3 3 1 12 8 20 14 17 31
16 37 -2z m40 -35 c-3 -8 -6 -5 -6 6 -1 11 2 17 5 13 3 -3 4 -12 1 -19z m-17
-3 c0 -19 -21 -65 -31 -65 -4 0 -2 18 3 40 10 39 28 55 28 25z"/>
<path d="M1920 3673 c0 -26 1 -26 15 -7 19 25 19 34 0 34 -10 0 -15 -10 -15
-27z"/>
<path d="M2142 3636 c-13 -15 -7 -89 7 -94 6 -2 11 5 11 16 0 10 9 27 20 37
28 25 26 50 -5 51 -13 1 -28 -3 -33 -10z"/>
<path d="M1906 3621 c-4 -7 -5 -15 -2 -18 9 -9 19 4 14 18 -4 11 -6 11 -12 0z"/>
<path d="M1558 3438 c-8 -21 12 -80 25 -75 17 5 21 68 5 78 -18 12 -25 11 -30
-3z"/>
<path d="M1978 3335 c-3 -14 -1 -28 3 -31 5 -3 9 9 9 25 0 38 -6 40 -12 6z"/>
<path d="M4380 3261 c-71 -7 -75 -12 -39 -63 15 -21 29 -28 52 -28 26 0 38 -8
67 -47 31 -41 112 -111 133 -112 4 -1 7 55 7 124 l0 125 -37 1 c-21 1 -56 2
-78 3 -22 1 -69 0 -105 -3z"/>
<path d="M1561 3244 c0 -11 3 -14 6 -6 3 7 2 16 -1 19 -3 4 -6 -2 -5 -13z"/>
<path d="M1987 3230 c3 -11 9 -22 13 -25 5 -3 6 4 3 15 -3 11 -9 22 -13 25 -5
3 -6 -4 -3 -15z"/>
<path d="M1737 3213 c-11 -10 -8 -33 4 -33 15 0 39 26 32 34 -8 8 -28 8 -36
-1z"/>
<path d="M2064 3206 c-6 -6 -11 -20 -11 -29 0 -16 2 -16 21 2 13 13 17 24 11
30 -6 6 -14 5 -21 -3z"/>
<path d="M1674 3198 c-4 -6 1 -17 12 -25 15 -11 19 -11 27 2 15 28 -22 51 -39
23z"/>
<path d="M1697 3066 c-4 -10 -5 -21 -2 -24 9 -9 17 6 13 25 -3 17 -4 17 -11
-1z"/>
<path d="M1623 3034 c-3 -8 -1 -20 6 -27 8 -8 11 -4 11 16 0 30 -7 35 -17 11z"/>
<path d="M1981 3028 c0 -16 2 -18 6 -8 3 8 11 18 17 22 7 5 4 8 -6 8 -12 0
-18 -7 -17 -22z"/>
<path d="M2022 3025 c0 -16 2 -22 5 -12 2 9 2 23 0 30 -3 6 -5 -1 -5 -18z"/>
<path d="M1335 3017 c-4 -10 -5 -21 -1 -24 10 -10 18 4 13 24 -4 17 -4 17 -12
0z"/>
<path d="M1720 3011 c0 -12 5 -21 10 -21 6 0 10 6 10 14 0 8 -4 18 -10 21 -5
3 -10 -3 -10 -14z"/>
<path d="M1873 2995 c0 -8 4 -12 9 -9 5 3 6 10 3 15 -9 13 -12 11 -12 -6z"/>
<path d="M1941 2924 c0 -11 3 -14 6 -6 3 7 2 16 -1 19 -3 4 -6 -2 -5 -13z"/>
<path d="M1895 2910 c3 -5 8 -10 11 -10 2 0 4 5 4 10 0 6 -5 10 -11 10 -5 0
-7 -4 -4 -10z"/>
<path d="M2015 2909 c-4 -6 -5 -12 -2 -15 2 -3 7 2 10 11 7 17 1 20 -8 4z"/>
<path d="M1256 2894 c-9 -25 -7 -46 5 -42 6 2 11 8 11 13 0 6 4 15 9 21 6 8 5
14 -5 17 -8 3 -17 -1 -20 -9z"/>
<path d="M1795 2890 c-3 -5 -1 -10 4 -10 6 0 11 5 11 10 0 6 -2 10 -4 10 -3 0
-8 -4 -11 -10z"/>
<path d="M1980 2885 c-7 -9 -8 -15 -2 -15 5 0 12 7 16 15 3 8 4 15 2 15 -2 0
-9 -7 -16 -15z"/>
<path d="M1730 2870 c0 -5 5 -10 10 -10 6 0 10 5 10 10 0 6 -4 10 -10 10 -5 0
-10 -4 -10 -10z"/>
<path d="M1875 2849 c-4 -6 -4 -13 -1 -16 3 -4 6 -1 6 5 0 16 27 15 33 -1 5
-14 77 -11 77 3 0 5 -11 7 -25 4 -14 -2 -25 0 -25 6 0 13 -57 13 -65 -1z"/>
<path d="M1223 2805 c-11 -35 -4 -46 15 -22 19 23 24 57 9 57 -7 0 -18 -16
-24 -35z"/>
<path d="M4580 2793 c0 -5 5 -15 10 -23 8 -12 10 -11 10 8 0 12 -4 22 -10 22
-5 0 -10 -3 -10 -7z"/>
<path d="M1188 2743 c-17 -20 -31 -100 -18 -108 4 -3 11 3 15 13 7 17 24 112
20 112 -1 0 -9 -8 -17 -17z"/>
<path d="M1975 2680 c-19 -8 -19 -9 3 -9 12 -1 22 4 22 9 0 6 -1 10 -2 9 -2 0
-12 -4 -23 -9z"/>
<path d="M1116 2553 c-7 -16 -17 -43 -21 -62 -4 -18 -16 -53 -27 -78 -11 -25
-17 -48 -13 -51 11 -12 33 27 46 81 6 29 20 64 30 79 20 28 25 58 9 58 -5 0
-16 -12 -24 -27z"/>
<path d="M2075 2550 c-3 -5 1 -10 10 -10 9 0 13 5 10 10 -3 6 -8 10 -10 10 -2
0 -7 -4 -10 -10z"/>
<path d="M1023 2278 c-13 -30 -31 -80 -50 -143 -9 -27 -19 -59 -23 -70 -19
-47 -28 -85 -22 -85 11 0 62 107 62 129 0 10 3 21 7 24 8 9 52 137 53 155 0
20 -16 14 -27 -10z"/>
<path d="M896 1902 c-9 -18 -15 -43 -13 -55 3 -19 6 -16 21 16 23 52 17 84 -8
39z"/>
<path d="M865 1780 c-5 -8 -10 -17 -11 -20 0 -3 -3 -12 -6 -20 -3 -8 -11 -42
-18 -75 -7 -33 -18 -67 -26 -75 -7 -9 -14 -33 -15 -55 -1 -22 -8 -60 -17 -83
-13 -38 -13 -45 -1 -53 11 -7 10 -9 -4 -9 -10 0 -15 -5 -12 -10 3 -6 0 -27 -7
-47 -10 -29 -10 -37 0 -40 6 -3 12 -9 12 -14 0 -4 -7 -6 -15 -3 -9 4 -15 0
-15 -10 0 -9 -5 -16 -10 -16 -6 0 -8 -11 -4 -25 4 -15 2 -25 -5 -25 -6 0 -11
-9 -11 -21 0 -13 4 -18 13 -13 6 4 4 -1 -5 -12 -10 -11 -19 -35 -22 -54 -3
-19 -10 -71 -17 -115 -7 -44 -13 -91 -13 -105 -1 -14 -7 -36 -13 -50 -23 -55
-33 -99 -33 -154 0 -36 -4 -55 -10 -51 -5 3 -10 0 -10 -8 0 -8 -7 -21 -16 -28
-15 -12 -16 -10 -12 26 3 22 12 72 21 110 23 109 27 135 19 135 -4 0 -18 -57
-30 -127 -13 -71 -30 -159 -38 -198 -8 -38 -16 -88 -18 -110 -2 -22 -7 -55
-11 -72 -5 -21 -4 -33 3 -33 16 0 22 13 28 62 3 24 8 54 11 68 3 14 8 43 10
64 5 35 22 66 37 66 3 0 -2 -16 -10 -36 -12 -28 -13 -43 -5 -66 7 -20 7 -36 1
-48 -6 -10 -7 -26 -4 -34 4 -9 1 -16 -6 -16 -7 0 -10 -7 -7 -15 4 -8 2 -17 -4
-21 -5 -3 -9 -13 -8 -22 0 -10 -2 -28 -6 -41 l-8 -24 -18 24 -17 23 -12 -42
c-6 -24 -10 -64 -9 -90 1 -26 -5 -69 -14 -95 -22 -70 -17 -77 58 -77 55 0 65
3 70 20 3 11 11 20 18 20 8 0 8 3 -1 12 -8 8 -8 17 -1 30 7 12 7 24 1 31 -9
11 -8 106 2 167 2 14 4 33 5 42 0 9 7 23 14 30 15 15 39 185 30 217 -3 12 -1
47 6 79 6 31 12 74 13 95 1 21 8 43 15 49 7 6 13 31 13 56 0 25 6 53 14 61 17
20 31 188 16 193 -13 4 6 68 25 83 10 9 23 118 30 252 1 24 7 48 13 55 5 7 12
30 15 51 3 20 9 43 15 50 5 6 10 24 10 39 0 15 7 44 16 63 19 38 19 113 1 85z
m-331 -1646 c7 -19 -2 -37 -15 -29 -12 8 -12 45 0 45 5 0 12 -7 15 -16z"/>
<path d="M795 1731 c-3 -5 -1 -12 5 -16 5 -3 10 1 10 9 0 18 -6 21 -15 7z"/>
<path d="M1401 1655 c-1 -11 -4 -31 -7 -45 -5 -22 -4 -23 6 -7 6 10 9 30 7 45
-3 18 -5 20 -6 7z"/>
<path d="M760 1606 c-7 -25 -10 -50 -7 -58 2 -7 8 1 11 17 4 17 11 40 16 52 5
12 5 25 1 27 -5 3 -14 -14 -21 -38z"/>
<path d="M1382 1540 c0 -14 2 -19 5 -12 2 6 2 18 0 25 -3 6 -5 1 -5 -13z"/>
<path d="M1400 1411 c0 -5 9 -11 20 -14 11 -3 20 -10 20 -17 0 -7 -13 -4 -34
9 -29 18 -35 19 -40 6 -3 -8 -13 -15 -23 -15 -19 0 -36 -9 -101 -52 -23 -16
-49 -28 -57 -28 -9 0 -31 -7 -51 -15 -30 -12 -34 -17 -25 -33 9 -17 19 -19 67
-15 38 4 70 0 101 -12 24 -9 55 -15 68 -13 13 3 26 0 29 -6 2 -6 5 -1 5 12 1
21 21 33 21 12 0 -5 9 -10 20 -10 11 0 20 5 20 11 0 5 -4 7 -10 4 -5 -3 -10
-1 -10 4 0 6 7 11 15 11 20 0 55 40 55 62 0 10 7 18 15 18 8 0 15 5 15 10 0 6
-8 10 -18 10 -11 0 -26 8 -35 18 -13 15 -14 21 -4 31 9 10 8 11 -5 6 -11 -4
-18 -2 -18 4 0 6 -9 11 -20 11 -11 0 -20 -4 -20 -9z m66 -75 c8 -8 11 -17 7
-19 -5 -2 -17 4 -27 14 -12 12 -15 19 -7 19 7 0 19 -6 27 -14z m-11 -56 c-3
-5 -10 -10 -16 -10 -5 0 -9 5 -9 10 0 6 7 10 16 10 8 0 12 -4 9 -10z"/>
<path d="M2405 1390 c-3 -5 3 -10 14 -10 12 0 21 5 21 10 0 6 -6 10 -14 10 -8
0 -18 -4 -21 -10z"/>
<path d="M1590 1320 c0 -6 -5 -8 -10 -5 -12 7 -70 -16 -70 -27 0 -12 28 -9 50
4 21 13 36 6 25 -12 -6 -9 -10 -9 -16 1 -7 11 -9 10 -9 -3 0 -21 13 -30 33
-23 16 7 21 61 6 70 -5 4 -9 1 -9 -5z"/>
<path d="M676 1254 c-4 -20 -5 -38 -2 -41 2 -3 8 11 12 31 3 21 4 39 1 42 -2
3 -8 -11 -11 -32z"/>
<path d="M1516 1248 c3 -5 10 -6 15 -3 13 9 11 12 -6 12 -8 0 -12 -4 -9 -9z"/>
<path d="M1630 1231 c-26 -5 -30 -8 -18 -13 9 -4 31 -3 47 2 24 7 31 5 31 -6
0 -18 14 -18 30 1 11 13 10 14 -4 9 -9 -3 -16 -1 -16 5 0 12 -14 12 -70 2z"/>
<path d="M1560 1215 c0 -8 4 -15 10 -15 5 0 7 7 4 15 -4 8 -8 15 -10 15 -2 0
-4 -7 -4 -15z"/>
<path d="M1537 1179 c7 -7 15 -10 18 -7 3 3 -2 9 -12 12 -14 6 -15 5 -6 -5z"/>
<path d="M1775 1170 c3 -5 11 -10 16 -10 6 0 7 5 4 10 -3 6 -11 10 -16 10 -6
0 -7 -4 -4 -10z"/>
<path d="M1675 1100 c-3 -6 1 -7 9 -4 18 7 21 14 7 14 -6 0 -13 -4 -16 -10z"/>
<path d="M645 1083 c-13 -31 -27 -97 -30 -143 -2 -25 -1 -32 2 -15 2 16 11 38
19 49 8 11 14 37 14 58 0 20 5 40 10 43 12 8 13 25 1 25 -5 0 -12 -8 -16 -17z"/>
<path d="M1845 820 c-3 -5 -3 -22 0 -37 5 -25 5 -26 -4 -5 -6 12 -15 22 -22
22 -6 0 -8 -6 -5 -12 3 -7 9 -21 12 -30 3 -9 12 -19 20 -22 11 -4 14 6 14 44
0 50 -3 59 -15 40z"/>
<path d="M2442 681 c-10 -6 -8 -10 9 -14 26 -7 34 -3 24 12 -7 13 -15 14 -33
2z"/>
<path d="M2450 426 c0 -2 7 -9 15 -16 12 -10 15 -10 15 4 0 9 -7 16 -15 16 -8
0 -15 -2 -15 -4z"/>
<path d="M2505 371 c-9 -16 3 -31 26 -31 14 0 19 6 17 17 -4 20 -33 29 -43 14z"/>
<path d="M2265 250 c3 -5 8 -10 11 -10 2 0 4 5 4 10 0 6 -5 10 -11 10 -5 0 -7
-4 -4 -10z"/>
</g>
</svg>
