<?xml version="1.0" encoding="utf-8"?>
<svg xmlns="http://www.w3.org/2000/svg" fill="none" height="873" viewBox="0 0 1376 873" width="1376">
<rect fill="#4D51B8" height="873" width="1376"/>
<path clip-rule="evenodd" d="M846.882 575.561L633.776 638.78C627.266 640.713 621.026 635.065 622.394 628.479L698.525 262.776C699.949 255.941 709.373 254.855 712.347 261.188L853.308 561.426C855.966 567.089 852.933 573.768 846.882 575.561ZM883.428 560.648L720.214 213.011V213.004C718.186 208.723 715.041 205.073 711.112 202.439C707.183 199.806 702.617 198.288 697.898 198.047C687.966 197.467 679.068 202.272 674.048 210.449L497.035 498.021C494.345 502.365 492.946 507.388 493.002 512.501C493.057 517.614 494.564 522.605 497.346 526.89L583.873 661.33C589.03 669.355 597.965 674 607.253 674C609.885 674 612.532 673.628 615.135 672.855L866.299 598.346C870.08 597.234 873.579 595.322 876.559 592.738C879.54 590.154 881.933 586.958 883.576 583.366C885.198 579.796 886.025 575.913 885.999 571.989C885.974 568.065 885.096 564.194 883.428 560.645V560.648Z" fill="white" fill-rule="evenodd"/>
</svg>